 <svg  version="1.0" xmlns="http://www.w3.org/2000/svg"  width="300.000000pt" height="148.000000pt" viewBox="0 0 300.000000 148.000000"  preserveAspectRatio="xMidYMid meet">  <g transform="translate(0.000000,148.000000) scale(0.100000,-0.100000)" fill="#ffffff" stroke="none"> <path d="M2264 1405 c-20 -30 -20 -51 -4 -130 13 -67 22 -82 97 -177 l53 -67 0 -185 0 -186 -66 0 -66 0 7 223 c3 123 2 242 -3 267 l-9 45 -12 -29 c-8 -19 -11 -103 -11 -257 1 -212 3 -230 21 -253 17 -22 28 -26 74 -26 83 0 95 18 97 144 1 56 2 110 3 121 1 11 3 46 4 78 l1 58 149 -153 c183 -187 298 -282 326 -271 38 14 44 128 9 181 -14 22 -14 25 3 44 16 18 18 45 21 277 3 300 6 292 -93 295 -51 1 -59 -2 -81 -27 l-25 -29 7 -179 c5 -119 3 -179 -3 -179 -6 0 -30 21 -54 48 -183 202 -363 373 -406 386 -17 5 -26 1 -39 -19z m295 -260 c46 -49 135 -144 197 -210 170 -182 166 -175 169 -250 l3 -64 -62 51 c-107 91 -264 249 -382 385 -63 72 -132 146 -154 163 -33 27 -40 38 -40 68 0 21 -4 54 -9 74 -5 20 -6 39 -4 42 8 7 186 -157 282 -259z m364 -42 c-3 -148 -6 -269 -7 -270 -1 -1 -27 31 -58 70 l-58 72 0 198 0 197 65 0 65 0 -7 -267z"/> <path d="M363 1402 l-272 -2 -21 -27 c-30 -38 -21 -127 16 -160 23 -21 35 -23 152 -24 70 -1 130 -1 135 0 23 4 -1 -40 -57 -101 -36 -39 -75 -91 -88 -115 l-23 -44 24 -20 c20 -17 37 -19 99 -17 l76 3 64 75 c36 41 90 102 122 135 82 88 117 143 124 197 6 53 -16 93 -56 99 -13 2 -145 3 -295 1z m317 -87 c0 -55 -1 -56 -75 -138 -41 -45 -108 -121 -148 -169 l-72 -88 -85 1 c-68 0 -82 2 -70 12 8 7 28 30 45 52 16 22 48 59 70 82 63 66 125 144 125 158 0 3 -26 4 -57 3 -32 -2 -118 -2 -190 0 l-133 2 0 70 0 70 295 0 295 0 0 -55z"/> <path d="M998 1398 c-46 -9 -58 -32 -58 -108 0 -58 3 -69 25 -90 21 -20 35 -24 77 -22 72 2 89 22 95 109 5 57 2 72 -14 92 -21 25 -63 32 -125 19z m104 -108 l-4 -80 -59 0 -59 0 0 58 c0 31 -3 67 -6 80 -6 21 -4 22 62 22 l69 0 -3 -80z"/> <path d="M1433 1402 c-39 -6 -63 -48 -63 -109 0 -68 23 -112 60 -114 35 -3 62 -2 330 6 286 9 280 6 280 105 0 96 -14 110 -112 111 -40 0 -163 1 -273 2 -110 1 -210 1 -222 -1z m572 -105 l0 -72 -125 0 c-69 0 -203 -3 -297 -8 l-173 -7 0 80 0 80 298 0 297 0 0 -73z"/> <path d="M1389 1132 c-42 -5 -58 -31 -65 -108 -10 -113 -26 -108 349 -105 367 2 351 -3 348 102 -2 107 9 103 -324 109 -155 3 -294 4 -308 2z m324 -42 l277 0 0 -68 0 -68 -321 -1 -321 -2 6 31 c3 17 6 51 6 76 l0 45 38 -7 c20 -3 162 -6 315 -6z"/> <path d="M949 1111 c-25 -20 -25 -18 -15 -159 3 -48 142 -54 186 -7 29 31 32 135 5 165 -26 28 -142 29 -176 1z m159 -83 l-3 -73 -72 -3 -73 -3 0 70 0 70 58 4 c31 2 65 4 75 5 16 2 18 -6 15 -70z"/> <path d="M966 839 c-25 -20 -27 -26 -25 -91 3 -97 21 -118 98 -118 78 0 94 18 99 108 5 90 -12 113 -89 119 -45 3 -60 0 -83 -18z m139 -100 l0 -79 -65 0 -65 0 2 82 c1 46 2 83 2 83 1 0 29 -1 64 -3 l63 -4 -1 -79z"/> <path d="M1433 852 c-36 -5 -53 -40 -53 -108 0 -47 5 -67 21 -88 l20 -26 294 0 c292 0 294 0 309 22 11 15 16 45 16 85 0 97 -9 103 -172 104 -73 1 -196 4 -273 8 -77 3 -150 5 -162 3z m511 -45 c67 2 77 1 72 -13 -3 -9 -6 -42 -6 -74 l0 -58 -299 1 -298 2 0 78 1 79 225 -9 c124 -4 261 -7 305 -6z"/> <path d="M191 839 c-30 -4 -50 -13 -60 -28 -9 -12 -28 -38 -43 -58 -16 -19 -28 -43 -28 -51 0 -22 79 56 86 85 6 22 7 22 270 23 l264 1 0 -60 c0 -33 3 -67 7 -76 6 -16 -15 -17 -305 -13 -281 3 -311 2 -297 -12 13 -13 61 -16 303 -18 285 -4 287 -4 307 18 17 18 20 34 17 89 -4 102 3 99 -257 103 -121 2 -240 0 -264 -3z"/> <path d="M1345 520 c-75 -19 -133 -65 -154 -123 -51 -133 55 -296 191 -297 47 0 81 15 136 58 50 40 53 63 13 103 -35 34 -55 36 -96 9 -56 -37 -105 -15 -105 47 0 50 48 71 106 47 41 -17 62 -13 93 20 37 39 8 89 -74 127 -43 20 -62 21 -110 9z m118 -49 c15 -10 35 -27 42 -39 13 -18 12 -21 -11 -37 -23 -15 -27 -15 -43 -1 -20 19 -79 21 -114 5 -54 -25 -64 -114 -18 -160 42 -42 101 -37 141 11 14 18 17 17 48 -9 l33 -28 -51 -38 c-65 -48 -113 -55 -174 -25 -88 42 -128 154 -86 242 17 38 32 52 73 73 61 30 121 32 160 6z"/> <path d="M1735 522 c-86 -2 -103 -6 -122 -24 -13 -12 -23 -31 -23 -43 0 -32 35 -71 70 -78 l30 -6 1 -93 c1 -117 3 -129 30 -150 29 -25 55 -22 84 7 23 23 25 31 25 130 l0 105 29 0 c61 0 89 82 45 131 -19 21 -45 25 -169 21z m157 -73 l4 -39 -55 0 -54 0 5 -135 5 -135 -34 0 -33 0 -2 113 c-1 61 -2 123 -2 137 -1 23 -4 24 -48 21 -41 -2 -48 0 -48 16 0 10 -3 27 -6 38 -5 19 0 20 130 21 l134 1 4 -38z"/> <path d="M2748 515 c-48 -12 -107 -52 -107 -72 -1 -7 -5 -13 -10 -13 -5 0 -15 -24 -22 -54 -30 -138 70 -276 200 -276 46 0 136 51 155 88 13 25 12 29 -8 53 -39 45 -53 48 -103 23 -46 -24 -75 -21 -95 10 -14 21 -8 63 12 81 19 18 31 17 111 -1 19 -4 34 1 57 21 36 30 39 50 14 81 -43 54 -128 78 -204 59z m120 -40 c20 -9 47 -25 59 -37 l23 -21 -31 -19 c-27 -17 -32 -17 -52 -3 -32 23 -91 19 -122 -8 -20 -16 -28 -35 -32 -68 -5 -41 -2 -50 24 -79 35 -40 75 -43 130 -10 32 19 37 19 53 5 9 -8 23 -15 31 -15 19 -1 -48 -55 -93 -76 -64 -29 -150 4 -190 73 -25 42 -33 121 -18 167 29 88 127 128 218 91z"/> <path d="M82 504 c-21 -15 -22 -21 -22 -189 0 -222 -7 -213 160 -213 129 -1 140 4 154 61 6 27 -7 65 -27 79 -8 4 -7 15 1 34 10 20 10 35 1 61 -10 31 -9 37 10 54 27 26 29 89 3 112 -26 24 -247 25 -280 1z m268 -54 l0 -40 -100 0 -100 0 0 -35 0 -35 85 0 85 0 0 -35 0 -35 -80 0 -80 0 0 -31 0 -31 95 4 c78 3 95 1 90 -10 -3 -7 -5 -26 -5 -40 l0 -27 -123 0 -124 0 -1 175 0 175 129 3 129 3 0 -41z"/> <path d="M475 500 c-15 -17 -18 -42 -19 -190 -1 -170 -1 -172 23 -191 22 -18 35 -19 120 -15 53 3 104 8 112 11 24 9 39 51 32 86 -8 41 -39 60 -91 55 -23 -2 -45 1 -49 7 -4 6 -7 54 -8 106 -1 53 -5 106 -9 117 -12 37 -82 46 -111 14z m83 -146 l-3 -135 82 3 82 3 -1 -42 -2 -42 -116 -3 c-63 -2 -115 -3 -115 -3 0 0 1 80 3 178 l3 177 35 0 35 0 -3 -136z"/> <path d="M822 502 c-23 -18 -23 -19 -18 -192 6 -221 -2 -212 168 -207 96 4 122 8 138 22 27 25 25 71 -5 106 -18 22 -22 35 -16 52 5 12 4 35 0 51 -7 25 -5 34 16 56 29 30 34 90 9 114 -24 25 -260 23 -292 -2z m278 -47 l0 -45 -100 0 -100 0 0 -36 0 -36 80 7 80 7 0 -40 0 -40 -80 5 -80 6 0 -38 0 -37 98 4 97 4 1 -41 1 -40 -131 0 -131 0 0 175 0 175 130 5 c72 3 131 7 133 8 1 1 2 -18 2 -43z"/> <path d="M2012 504 c-22 -15 -23 -19 -21 -177 1 -192 9 -216 71 -217 30 0 58 32 58 67 0 35 17 36 41 1 53 -77 87 -93 134 -62 32 21 32 51 0 94 l-24 33 24 29 c14 16 25 33 26 36 0 4 2 14 4 24 5 27 -15 102 -34 124 -32 39 -81 57 -171 61 -67 3 -90 0 -108 -13z m224 -45 c35 -21 54 -56 54 -100 0 -37 -26 -89 -45 -89 -26 0 -27 -21 -3 -48 34 -37 58 -79 51 -86 -4 -3 -19 -6 -34 -6 -23 0 -34 11 -68 65 -23 36 -48 65 -55 65 -38 0 -46 -12 -46 -64 0 -61 -2 -65 -35 -58 -24 4 -25 7 -26 91 0 47 -4 124 -7 171 l-7 85 95 -3 c71 -3 103 -9 126 -23z"/> <path d="M2085 363 c4 -27 8 -49 10 -51 2 -2 29 0 61 5 55 7 59 10 62 36 5 44 -13 57 -80 57 l-60 0 7 -47z"/> <path d="M2422 497 c-23 -24 -27 -73 -24 -260 2 -79 5 -90 27 -112 30 -31 47 -31 82 -1 l28 24 1 154 c0 84 -3 161 -8 170 -25 51 -71 62 -106 25z m78 -186 l0 -176 -32 1 -33 1 -3 175 -2 176 35 -1 35 -1 0 -175z"/> </g> </svg> 